<svg width="60" height="60" viewBox="0 0 60 60" fill="none" xmlns="http://www.w3.org/2000/svg">
<path d="M23.2625 39.0875C23.2625 41.7 21.9 45.975 18.675 45.975C15.45 45.975 14.0875 41.7 14.0875 39.0875C14.0875 36.475 15.45 32.2 18.675 32.2C21.9 32.2 23.2625 36.475 23.2625 39.0875ZM60 32.775C60 36.7625 59.6 40.9875 57.8125 44.65C53.075 54.225 40.05 54 30.725 54C21.25 54 7.45 54.3375 2.525 44.65C0.7 41.025 0 36.7625 0 32.775C0 27.5375 1.7375 22.5875 5.1875 18.575C4.5375 16.6 4.225 14.525 4.225 12.475C4.225 9.7875 4.8375 8.4375 6.05 6C11.7125 6 15.3375 7.125 19.65 10.5C23.275 9.6375 27 9.25 30.7375 9.25C34.1125 9.25 37.5125 9.6125 40.7875 10.4C45.0375 7.0625 48.6625 6 54.2625 6C55.4875 8.4375 56.0875 9.7875 56.0875 12.475C56.0875 14.525 55.7625 16.5625 55.125 18.5C58.5625 22.55 60 27.5375 60 32.775ZM51.9625 39.0875C51.9625 33.6 48.625 28.7625 42.775 28.7625C40.4125 28.7625 38.15 29.1875 35.775 29.5125C33.9125 29.8 32.05 29.9125 30.1375 29.9125C28.2375 29.9125 26.375 29.8 24.5 29.5125C22.1625 29.1875 19.875 28.7625 17.5 28.7625C11.65 28.7625 8.3125 33.6 8.3125 39.0875C8.3125 50.0625 18.3625 51.75 27.1125 51.75H33.1375C41.925 51.75 51.9625 50.075 51.9625 39.0875ZM41.6375 32.2C38.4125 32.2 37.05 36.475 37.05 39.0875C37.05 41.7 38.4125 45.975 41.6375 45.975C44.8625 45.975 46.225 41.7 46.225 39.0875C46.225 36.475 44.8625 32.2 41.6375 32.2Z" fill="black"/>
</svg>
