<svg width="300" height="299" viewBox="0 0 300 299" fill="none" xmlns="http://www.w3.org/2000/svg">
    <path
        d="M147.688 281.021C73.1888 281.021 12.6244 218.017 12.6244 140.512C12.6244 63.0042 73.1888 0 147.688 0C222.187 0 282.749 63.0042 282.749 140.512C282.749 218.017 222.187 281.021 147.688 281.021ZM147.688 8.42954C77.6722 8.42954 20.7302 67.6685 20.7302 140.512C20.7302 213.353 77.7264 272.592 147.688 272.592C217.704 272.592 274.646 213.296 274.646 140.512C274.646 67.6685 217.704 8.42954 147.688 8.42954Z"
        fill="#D9D9D9" />
    <path
        d="M147.688 241.68C94.0402 241.68 50.4432 196.321 50.4432 140.512C50.4432 84.7001 94.0402 39.4009 147.688 39.4009C201.336 39.4009 244.879 84.7565 244.879 140.512C244.933 196.265 201.336 241.68 147.688 241.68ZM147.688 46.9314C98.0931 46.9314 57.7902 88.9165 57.7902 140.456C57.7902 191.995 98.0931 234.033 147.688 234.033C197.283 234.033 237.586 192.051 237.586 140.512C237.586 88.9729 197.283 46.9314 147.688 46.9314Z"
        fill="#D9D9D9" />
    <path
        d="M164.18 298.769C89.6779 298.769 29.1167 235.765 29.1167 158.26C29.1167 80.7524 89.6779 17.7481 164.18 17.7481C238.68 17.7481 299.241 80.7524 299.241 158.26C299.241 235.765 238.68 298.769 164.18 298.769ZM164.18 26.181C94.1645 26.181 37.2226 85.42 37.2226 158.26C37.2226 231.101 94.2187 290.34 164.18 290.34C234.196 290.34 291.138 231.044 291.138 158.26C291.138 85.42 234.196 26.181 164.18 26.181Z"
        fill="#A8998D" />
    <path
        d="M164.18 259.428C110.533 259.428 66.9356 214.069 66.9356 158.26C66.9356 102.448 110.533 57.149 164.18 57.149C217.825 57.149 261.371 102.505 261.371 158.26C261.425 214.016 217.825 259.428 164.18 259.428ZM164.18 64.6795C114.585 64.6795 74.2825 106.665 74.2825 158.204C74.2825 209.743 114.585 251.785 164.18 251.785C213.776 251.785 254.078 209.8 254.078 158.26C254.078 106.721 213.776 64.6795 164.18 64.6795Z"
        fill="#A8998D" />
    <path
        d="M129.487 298.766C58.125 298.766 0.114792 238.416 0.114792 164.172C0.114792 89.9317 58.125 29.5813 129.487 29.5813C200.848 29.5813 258.862 89.9317 258.862 164.172C258.862 238.416 200.848 298.766 129.487 298.766ZM129.487 37.6559C62.4203 37.6559 7.87627 94.4002 7.87627 164.172C7.87627 233.947 62.4713 290.691 129.487 290.691C196.553 290.691 251.097 233.891 251.097 164.172C251.097 94.4002 196.553 37.6559 129.487 37.6559Z"
        fill="#72383D" />
    <path
        d="M129.487 261.08C78.0995 261.08 36.3393 217.632 36.3393 164.172C36.3393 110.715 78.0995 67.3202 129.487 67.3202C180.874 67.3202 222.583 110.768 222.583 164.172C222.637 217.579 180.874 261.08 129.487 261.08ZM129.487 74.5356C81.9802 74.5356 43.3769 114.753 43.3769 164.119C43.3769 213.489 81.9802 253.759 129.487 253.759C176.993 253.759 215.596 213.542 215.596 164.172C215.596 114.806 176.993 74.5356 129.487 74.5356Z"
        fill="#72383D" />
    <path fill-rule="evenodd" clip-rule="evenodd"
        d="M64.9585 233.406C66.6071 231.98 69.0784 229.976 72.3756 230.265C75.6728 230.55 83.0899 231.121 85.8386 230.55C88.5873 229.976 90.7844 230.835 91.6103 228.55C92.433 226.261 92.7072 218.83 94.9075 215.97C97.1045 213.114 103.15 209.969 103.973 207.109C104.799 204.253 105.073 203.108 103.973 200.249C102.873 197.393 100.402 194.818 96.8303 193.103C93.2589 191.388 89.9617 190.247 89.9617 190.247C89.9617 190.247 82.8156 197.107 82.5414 198.822C82.2672 200.537 83.0931 202.253 81.4445 203.108C79.7959 203.968 77.0471 201.393 76.4987 196.819C75.947 192.247 77.8698 186.817 77.5956 183.672C77.3214 180.527 75.3985 177.667 77.0471 174.526C78.6957 171.381 82.5414 166.521 85.5644 164.235C88.5873 161.946 93.8073 161.661 94.63 158.804C95.4559 155.945 89.41 145.084 89.41 142.509C89.41 139.938 90.2359 135.078 88.3131 131.077C86.3871 127.073 84.19 118.498 75.947 113.067C67.704 107.637 61.9355 105.351 60.5612 101.35C59.1868 97.3461 60.2869 97.3461 61.9355 96.2049C63.5841 95.0604 57.5382 88.4853 55.6154 82.1988C53.6925 75.909 50.3954 63.3327 51.7697 62.1882C53.1441 61.0436 57.264 62.1882 58.0899 64.4738C58.9126 66.7629 62.2098 80.769 62.2098 80.769C62.2098 80.769 61.3871 70.1931 62.7582 67.0482C64.1326 63.9033 65.7812 60.7583 67.4298 61.6176C69.0784 62.4735 68.2557 81.0543 68.2557 81.0543C68.2557 81.0543 69.9043 76.7649 71.0012 74.1939C72.1013 71.6196 72.9241 69.3339 74.2984 70.7637C75.6728 72.1935 74.5726 85.9143 74.5726 85.9143C74.5726 85.9143 76.7729 82.4841 78.4215 81.6249C80.0701 80.769 80.8928 80.1951 81.9929 82.1988C83.0931 84.1992 82.8156 86.7702 82.8156 86.7702C82.8156 86.7702 83.6415 83.9139 85.5644 83.9139C87.4872 83.9139 89.9617 84.7698 89.1358 87.0555C88.3131 89.3445 96.5529 87.3441 96.0044 91.3449C95.4559 95.3457 96.0044 99.0612 98.2047 99.0612C100.402 99.0612 101.776 102.206 106.17 101.062C108.919 102.777 104.799 113.353 106.722 111.926C108.645 110.496 113.039 109.352 114.687 112.497C116.339 115.642 112.49 119.357 114.687 122.217C116.888 125.073 114.687 127.647 117.985 129.933C121.282 132.219 121.559 130.504 122.382 135.649C123.208 140.794 123.208 143.083 124.579 145.084C125.953 147.084 127.602 148.514 127.328 152.8C127.054 157.089 124.579 161.09 127.876 160.519C131.173 159.946 132.548 156.515 135.022 155.086C137.494 153.659 138.045 153.37 141.339 150.799C144.636 148.225 145.188 144.795 147.111 143.939C149.034 143.083 150.682 143.368 153.431 142.224C156.177 141.079 158.925 138.508 160.3 137.364C161.674 136.223 161.674 135.649 164.145 133.363C166.617 131.077 169.091 129.648 170.74 125.932C172.388 122.213 172.114 121.928 174.037 116.497C175.96 111.067 175.411 109.352 176.508 107.066C177.608 104.777 177.608 102.777 179.531 100.776C181.454 98.7759 183.103 96.4902 183.38 98.4906C183.654 100.491 183.654 103.351 183.654 105.062C183.654 106.777 186.126 102.491 188.323 98.2053C190.523 93.9159 189.423 93.3453 190.249 89.6298C191.071 85.9109 190.249 83.34 190.523 79.0505C190.797 74.7645 191.346 74.4792 191.62 68.1893C191.897 61.8995 192.385 60.8446 192.385 56.2732C192.385 51.6985 192.226 49.8474 192.172 46.4669C193.125 43.8694 194.193 43.0766 194.917 43.322C195.81 43.5675 197.009 43.5841 197.726 47.0375C198.278 50.753 198.772 53.5231 199.314 60.4731C198.766 67.3335 198.492 73.3347 199.589 75.0498C200.689 76.7649 201.511 76.4796 202.337 74.4792C203.16 72.4754 203.16 71.6195 204.26 68.1893C205.36 64.7591 205.29 62.5099 205.855 57.7229C205.58 50.5772 205.909 47.3228 206.183 41.8922C206.457 36.4583 206.154 36.3024 206.735 33.0314C207.229 29.933 207.924 29.1965 210.306 29.6012C211.677 31.3163 211.955 35.6024 212.503 39.3179C213.052 43.0367 213.052 42.7481 213.326 49.6085C213.603 56.4689 213.364 59.2091 212.816 61.4948C212.685 64.0426 212.197 66.5771 212.503 67.6188C214.152 66.4742 214.152 64.4738 215.8 60.4697C217.449 56.4689 218.823 53.0387 219.372 48.464C219.92 43.8926 221.387 42.2173 222.325 37.1815C224.525 32.3248 225.006 31.1505 226.515 31.0277C228.109 32.2187 228.865 33.2935 228.715 37.0322C227.889 41.033 227.889 43.0334 226.515 47.0375C225.14 51.0383 225.418 52.7534 223.492 57.0395C222.325 60.8048 222.181 62.082 221.569 63.3293C224.318 63.6146 224.279 62.4801 225.966 60.4697C228.744 54.9662 227.691 56.1272 228.715 54.4685C230.239 51.1478 231.547 49.927 232.835 50.4677C234.209 52.7534 234.758 53.324 233.661 55.8983C232.561 58.4693 233.383 56.7542 231.735 60.4697C230.086 64.1852 228.437 65.615 230.638 65.3297C232.835 65.0444 233.109 65.3297 234.483 63.044C235.858 60.755 234.483 60.4697 237.506 59.0399C240.529 57.6134 242.452 55.0391 243.275 57.0395C244.101 59.0399 244.375 58.7546 242.452 61.6142C240.529 64.4738 238.606 65.3297 239.429 66.7595C240.255 68.1893 242.452 68.4746 244.101 68.4746C245.749 68.4746 246.024 68.7599 245.198 71.6196C244.375 74.4758 244.101 74.4758 243.826 75.9056C243.549 77.3354 244.923 78.48 244.923 78.48C244.923 78.48 247.398 76.7649 245.475 81.0509C243.549 85.3404 242.452 84.1958 241.352 86.1962C240.252 88.1966 239.155 90.197 240.804 90.197C242.452 90.197 244.101 89.9117 243.826 91.3415C243.549 92.7714 241.078 94.2012 242.452 95.057C243.826 95.9163 244.923 94.7718 246.024 95.9163C247.124 97.0574 246.024 99.0612 246.024 100.488C246.024 101.917 245.749 103.062 246.298 104.492C246.846 105.922 247.946 107.348 247.124 108.778C246.298 110.208 247.398 110.493 245.198 111.923C243.001 113.353 241.626 113.067 241.626 114.494C241.626 115.924 241.352 115.638 242.726 116.783C244.101 117.924 245.749 117.068 244.649 119.639C243.549 122.213 243.826 121.928 243.275 124.214C242.726 126.499 243.549 125.358 241.078 130.789C238.606 136.219 236.132 140.22 233.661 141.65C231.186 143.08 231.735 146.225 233.383 146.795C235.032 147.366 235.309 149.94 233.661 153.656C232.012 157.371 230.086 162.231 229.538 164.802C228.989 167.377 228.437 167.662 225.692 170.807C222.943 173.952 220.746 176.808 218.272 177.667C215.8 178.523 215.526 181.383 213.877 182.812C212.229 184.239 211.68 185.098 208.106 185.098C204.534 185.098 204.534 184.239 200.963 185.383C197.392 186.528 195.743 187.669 195.469 189.384C195.194 191.099 194.094 191.959 191.897 191.388C189.697 190.814 191.346 192.529 188.6 193.674C185.851 194.818 186.674 196.245 183.38 195.959C180.083 195.674 178.434 193.103 177.608 195.959C176.786 198.819 176.508 201.105 172.937 198.534C169.365 195.959 167.443 189.099 165.52 196.245C163.597 203.394 163.597 205.105 165.794 207.109C167.991 209.11 168.543 210.825 173.488 212.825C178.434 214.825 178.434 217.111 182.006 218.541C185.577 219.971 185.851 220.541 191.346 223.401C196.843 226.261 198.214 227.117 201.511 229.117C204.809 231.121 205.635 233.121 206.457 235.121C207.283 237.122 210.855 239.408 209.48 242.267C208.106 245.127 205.36 243.412 205.36 244.838C205.36 246.268 205.909 247.412 204.809 250.272C203.712 253.128 203.986 254.273 200.14 255.417C196.291 256.559 194.094 257.132 192.172 256.273C190.249 255.417 189.697 258.848 187.774 257.988C185.851 257.132 185.029 254.558 183.654 255.988C182.28 257.418 184.751 258.274 181.454 259.133C178.157 259.989 177.883 257.703 177.608 259.703C177.334 261.704 178.434 263.704 174.86 261.704C171.288 259.703 172.388 255.703 169.64 258.559C166.894 261.419 168.268 264.849 163.323 261.989C158.377 259.133 160.025 258.844 156.177 259.133C152.331 259.418 152.331 259.703 150.957 256.559C149.582 253.414 152.331 254.273 146.285 253.988C140.242 253.702 143.265 257.703 139.416 252.272C135.571 246.842 134.745 241.408 133.099 247.412C131.451 253.414 133.099 254.843 130.625 256.559C128.154 258.274 115.513 257.703 115.513 257.703C115.513 257.703 115.239 264.278 114.139 265.419C113.042 266.564 110.293 264.278 107.822 266.564C105.348 268.85 106.996 270.279 104.799 272.28C102.599 274.28 98.2047 274.565 98.2047 274.565C98.2047 274.565 101.228 271.994 102.05 269.709C102.876 267.42 103.973 263.419 103.973 263.419C103.973 263.419 99.579 265.134 97.6562 265.419C95.7302 265.705 92.7104 265.134 92.7104 265.134L93.5331 271.709C93.5331 271.709 88.3131 271.709 88.3131 269.42C88.3131 267.134 89.9617 260.845 91.336 259.989C92.7104 259.133 94.6332 259.418 94.6332 259.418C94.6332 259.418 94.0816 256.559 95.4559 255.988C96.8303 255.414 97.6562 255.988 99.8533 255.988C102.05 255.988 111.942 252.843 111.942 252.843C111.942 252.843 111.668 245.412 112.768 242.267C113.865 239.122 119.085 230.261 116.613 228.832C114.139 227.402 112.216 228.546 110.842 229.976C109.471 231.406 106.996 235.692 101.776 236.837C96.5561 237.978 92.433 238.552 92.433 238.552C92.433 238.552 91.336 239.122 91.336 241.408C91.336 243.697 93.2589 245.983 90.5102 248.842C87.7646 251.699 85.5644 254.273 82.5414 252.843C79.5216 251.413 78.97 249.698 78.97 249.698C78.97 249.698 81.1702 251.128 84.7417 250.272C88.3131 249.413 86.9387 242.267 86.6645 240.837C86.3903 239.408 83.6415 237.978 81.9929 239.408C80.3443 240.837 78.1473 244.553 79.5216 245.983C80.8928 247.412 75.6728 242.838 75.947 240.837C76.2244 238.837 77.0471 237.407 77.0471 237.407C77.0471 237.407 73.4757 237.407 71.2786 237.122C69.0784 236.837 67.4298 235.692 67.4298 237.407C67.4298 239.122 68.5299 246.839 66.0554 241.982C63.5841 237.122 62.484 235.977 64.9585 233.406Z"
        fill="white" />
    <path
        d="M64.9586 233.406C66.6072 231.98 69.0785 229.976 72.3757 230.265C75.6729 230.55 83.09 231.121 85.8388 230.55C88.5875 229.976 90.7845 230.835 91.6104 228.55C92.4331 226.261 92.7074 218.83 94.9076 215.97C97.1047 213.114 103.151 209.969 103.973 207.109C104.799 204.253 105.073 203.108 103.973 200.249C102.873 197.393 100.402 194.818 96.8305 193.103C93.259 191.388 89.9618 190.247 89.9618 190.247C89.9618 190.247 82.8158 197.107 82.5416 198.822C82.2673 200.537 83.0932 202.253 81.4446 203.108C79.796 203.968 77.0473 201.393 76.4988 196.819C75.9472 192.247 77.87 186.817 77.5958 183.672C77.3215 180.527 75.3987 177.667 77.0473 174.526C78.6959 171.381 82.5415 166.521 85.5645 164.235C88.5875 161.946 93.8075 161.661 94.6302 158.804C95.4561 155.945 89.4102 145.084 89.4102 142.509C89.4102 139.938 90.2361 135.078 88.3132 131.078C86.3872 127.073 84.1901 118.498 75.9472 113.067C67.7042 107.637 61.9357 105.351 60.5613 101.35C59.1869 97.3461 60.2871 97.3461 61.9357 96.2049C63.5843 95.0604 57.5383 88.4853 55.6155 82.1988C53.6927 75.909 50.3955 63.3327 51.7699 62.1882C53.1442 61.0436 57.2641 62.1882 58.09 64.4739C58.9127 66.7629 62.2099 80.769 62.2099 80.769C62.2099 80.769 61.3872 70.1931 62.7584 67.0482C64.1327 63.9033 65.7813 60.7583 67.4299 61.6176C69.0785 62.4735 68.2558 81.0543 68.2558 81.0543C68.2558 81.0543 69.9044 76.7649 71.0014 74.1939C72.1015 71.6196 72.9242 69.3339 74.2986 70.7637C75.6729 72.1935 74.5728 85.9143 74.5728 85.9143C74.5728 85.9143 76.7731 82.4841 78.4217 81.6249C80.0702 80.769 80.893 80.1951 81.9931 82.1988C83.0932 84.1992 82.8158 86.7702 82.8158 86.7702C82.8158 86.7702 83.6417 83.9139 85.5645 83.9139C87.4873 83.9139 89.9618 84.7698 89.1359 87.0555C88.3132 89.3445 96.553 87.3441 96.0046 91.3449C95.4561 95.3457 96.0046 99.0612 98.2048 99.0612C100.402 99.0612 101.776 102.206 106.17 101.062C108.919 102.777 104.799 113.353 106.722 111.926C108.645 110.496 113.039 109.352 114.688 112.497C116.339 115.642 112.491 119.357 114.688 122.217C116.888 125.073 114.688 127.647 117.985 129.933C121.282 132.219 121.559 130.504 122.382 135.649C123.208 140.794 123.208 143.083 124.579 145.084C125.954 147.084 127.602 148.514 127.328 152.8C127.054 157.089 124.579 161.09 127.876 160.52C131.174 159.946 132.548 156.515 135.022 155.086C137.494 153.659 138.045 153.371 141.339 150.8C144.637 148.225 145.188 144.795 147.111 143.939C149.034 143.083 150.683 143.369 153.431 142.224C156.177 141.08 158.926 138.509 160.3 137.364C161.674 136.223 161.674 135.649 164.146 133.363C166.617 131.078 169.091 129.648 170.74 125.932C172.389 122.213 172.114 121.928 174.037 116.498C175.96 111.067 175.412 109.352 176.508 107.066C177.609 104.777 177.609 102.777 179.531 100.776C181.454 98.7759 183.103 96.4902 183.38 98.4906C183.654 100.491 183.654 103.351 183.654 105.062C183.654 106.777 186.126 102.491 188.323 98.2053C190.523 93.9159 189.423 93.3453 190.249 89.6298C191.072 85.911 190.249 83.34 190.523 79.0506C190.797 74.7645 191.346 74.4792 191.62 68.1894C191.897 61.8995 192.385 60.8446 192.385 56.2732C192.385 51.6985 192.226 49.8474 192.172 46.4669C193.125 43.8694 194.193 43.0765 194.917 43.322C195.81 43.5675 197.009 43.5841 197.727 47.0375C198.278 50.753 198.772 53.5231 199.315 60.4731C198.766 67.3335 198.492 73.3347 199.589 75.0498C200.689 76.7649 201.512 76.4796 202.338 74.4792C203.16 72.4755 203.16 71.6196 204.26 68.1894C205.36 64.7591 205.29 62.5099 205.855 57.7229C205.581 50.5772 205.909 47.3228 206.183 41.8922C206.457 36.4583 206.155 36.3024 206.735 33.0314C207.229 29.933 207.924 29.1965 210.306 29.6012C211.677 31.3163 211.955 35.6024 212.503 39.3179C213.052 43.0367 213.052 42.7481 213.326 49.6085C213.603 56.4689 213.364 59.2091 212.816 61.4948C212.685 64.0426 212.197 66.5771 212.503 67.6188C214.152 66.4743 214.152 64.4739 215.801 60.4697C217.449 56.4689 218.824 53.0387 219.372 48.464C219.92 43.8926 221.387 42.2173 222.325 37.1815C224.525 32.3248 225.007 31.1505 226.515 31.0277C228.109 32.2187 228.865 33.2935 228.715 37.0322C227.889 41.033 227.889 43.0334 226.515 47.0375C225.14 51.0383 225.418 52.7534 223.492 57.0395C222.325 60.8048 222.181 62.082 221.569 63.3293C224.318 63.6146 224.28 62.4801 225.966 60.4697C228.744 54.9662 227.692 56.1272 228.715 54.4685C230.239 51.1478 231.547 49.927 232.835 50.4677C234.209 52.7534 234.758 53.324 233.661 55.8983C232.561 58.4693 233.383 56.7542 231.735 60.4697C230.086 64.1852 228.438 65.615 230.638 65.3297C232.835 65.0444 233.109 65.3297 234.484 63.044C235.858 60.755 234.484 60.4697 237.507 59.0399C240.53 57.6134 242.452 55.0391 243.275 57.0395C244.101 59.0399 244.375 58.7546 242.452 61.6142C240.53 64.4739 238.607 65.3297 239.429 66.7595C240.255 68.1894 242.452 68.4747 244.101 68.4747C245.75 68.4747 246.024 68.7599 245.198 71.6196C244.375 74.4758 244.101 74.4758 243.827 75.9057C243.549 77.3355 244.924 78.48 244.924 78.48C244.924 78.48 247.398 76.7649 245.475 81.051C243.549 85.3404 242.452 84.1959 241.352 86.1963C240.252 88.1967 239.155 90.1971 240.804 90.1971C242.452 90.1971 244.101 89.9118 243.827 91.3416C243.549 92.7714 241.078 94.2012 242.452 95.0571C243.827 95.9163 244.924 94.7718 246.024 95.9163C247.124 97.0575 246.024 99.0612 246.024 100.488C246.024 101.917 245.75 103.062 246.298 104.492C246.846 105.922 247.947 107.348 247.124 108.778C246.298 110.208 247.398 110.493 245.198 111.923C243.001 113.353 241.626 113.067 241.626 114.494C241.626 115.924 241.352 115.638 242.727 116.783C244.101 117.924 245.75 117.068 244.649 119.639C243.549 122.213 243.827 121.928 243.275 124.214C242.727 126.499 243.549 125.358 241.078 130.789C238.607 136.22 236.132 140.22 233.661 141.65C231.186 143.08 231.735 146.225 233.383 146.795C235.032 147.366 235.31 149.94 233.661 153.656C232.012 157.371 230.086 162.231 229.538 164.802C228.989 167.377 228.438 167.662 225.692 170.807C222.943 173.952 220.746 176.808 218.272 177.667C215.801 178.523 215.526 181.383 213.878 182.813C212.229 184.239 211.681 185.098 208.106 185.098C204.535 185.098 204.535 184.239 200.963 185.384C197.392 186.528 195.743 187.669 195.469 189.384C195.195 191.099 194.095 191.959 191.897 191.388C189.697 190.814 191.346 192.529 188.6 193.674C185.852 194.818 186.674 196.245 183.38 195.959C180.083 195.674 178.434 193.103 177.609 195.959C176.786 198.819 176.508 201.105 172.937 198.534C169.366 195.959 167.443 189.099 165.52 196.245C163.597 203.394 163.597 205.106 165.794 207.109C167.991 209.11 168.543 210.825 173.489 212.825C178.434 214.826 178.434 217.111 182.006 218.541C185.577 219.971 185.852 220.541 191.346 223.401C196.843 226.261 198.214 227.117 201.512 229.117C204.809 231.121 205.635 233.121 206.457 235.122C207.283 237.122 210.855 239.408 209.48 242.267C208.106 245.127 205.36 243.412 205.36 244.838C205.36 246.268 205.909 247.413 204.809 250.272C203.712 253.128 203.986 254.273 200.14 255.417C196.292 256.559 194.095 257.133 192.172 256.273C190.249 255.417 189.697 258.848 187.774 257.988C185.852 257.133 185.029 254.558 183.654 255.988C182.28 257.418 184.751 258.274 181.454 259.133C178.157 259.989 177.883 257.703 177.609 259.704C177.334 261.704 178.434 263.704 174.86 261.704C171.288 259.704 172.389 255.703 169.64 258.559C166.894 261.419 168.269 264.849 163.323 261.989C158.377 259.133 160.026 258.844 156.177 259.133C152.331 259.418 152.331 259.704 150.957 256.559C149.582 253.414 152.331 254.273 146.285 253.988C140.242 253.702 143.265 257.703 139.417 252.273C135.571 246.842 134.745 241.408 133.1 247.413C131.451 253.414 133.1 254.844 130.625 256.559C128.154 258.274 115.514 257.703 115.514 257.703C115.514 257.703 115.239 264.278 114.139 265.419C113.042 266.564 110.293 264.278 107.822 266.564C105.348 268.85 106.996 270.279 104.799 272.28C102.599 274.28 98.2048 274.566 98.2048 274.566C98.2048 274.566 101.228 271.995 102.05 269.709C102.876 267.42 103.973 263.419 103.973 263.419C103.973 263.419 99.5792 265.134 97.6564 265.419C95.7303 265.705 92.7106 265.134 92.7106 265.134L93.5333 271.709C93.5333 271.709 88.3132 271.709 88.3132 269.42C88.3132 267.135 89.9618 260.845 91.3362 259.989C92.7106 259.133 94.6334 259.418 94.6334 259.418C94.6334 259.418 94.0817 256.559 95.4561 255.988C96.8305 255.414 97.6564 255.988 99.8534 255.988C102.05 255.988 111.942 252.843 111.942 252.843C111.942 252.843 111.668 245.412 112.768 242.267C113.865 239.122 119.085 230.262 116.614 228.832C114.139 227.402 112.216 228.546 110.842 229.976C109.471 231.406 106.996 235.692 101.776 236.837C96.5562 237.978 92.4331 238.552 92.4331 238.552C92.4331 238.552 91.3362 239.122 91.3362 241.408C91.3362 243.697 93.259 245.983 90.5103 248.842C87.7648 251.699 85.5645 254.273 82.5416 252.843C79.5218 251.413 78.9701 249.698 78.9701 249.698C78.9701 249.698 81.1704 251.128 84.7418 250.272C88.3132 249.413 86.9389 242.267 86.6646 240.837C86.3904 239.408 83.6417 237.978 81.9931 239.408C80.3445 240.837 78.1474 244.553 79.5218 245.983C80.893 247.413 75.6729 242.838 75.9472 240.837C76.2246 238.837 77.0473 237.407 77.0473 237.407C77.0473 237.407 73.4759 237.407 71.2788 237.122C69.0785 236.837 67.4299 235.692 67.4299 237.407C67.4299 239.122 68.5301 246.839 66.0556 241.982C63.5843 237.122 62.4841 235.977 64.9586 233.406Z"
        stroke="black" stroke-width="1.26699" />
</svg>